<svg xmlns="http://www.w3.org/2000/svg" viewBox="0 0 422.03 156.1"><title>Asset 2</title><g id="Layer_2" data-name="Layer 2"><g id="Layer_1-2" data-name="Layer 1"><text transform="translate(0 126.09)" style="font-size:147.12725830078125px;fill:#009ddc;font-family:AlexandriaFLF-BoldItalic, AlexandriaFLF;font-weight:700;font-style:italic">e</text><path d="M96.61,142.22V134h7.92V33.1h-15V47.23H77.46V21h69V47.23H134.55V33.1h-15V134h6.81v8.19Z" style="fill:#007d99"/><path d="M217.53,117.11h9v9H203.26V119c-.79.88-1.75,1.86-2.87,2.94a19.3,19.3,0,0,1-4.34,3,26.58,26.58,0,0,1-6.26,2.28,36.43,36.43,0,0,1-8.6.89q-13.68,0-21-7.36T152.94,98V59.29h-9v-9h23.25V98.57q0,8.4,4.19,12.88t11.41,4.49a19.76,19.76,0,0,0,9-1.92,25.26,25.26,0,0,0,6.4-4.41,20.29,20.29,0,0,0,3.83-4.86,9.2,9.2,0,0,0,1.25-3.09V59.29h-9v-9h23.25Z" style="fill:#007d99"/><path d="M266.89,115.42a26.58,26.58,0,0,0,4.34-2.13v12.06A30.75,30.75,0,0,1,259,128a22.36,22.36,0,0,1-7.5-1.25,15.87,15.87,0,0,1-6.18-4,19.29,19.29,0,0,1-4.2-7,29.89,29.89,0,0,1-1.54-10.15v-45h-8.24V50.91h8.24V31.48l14.27-7.2V50.91h16.92v9.71H253.87v45a12.61,12.61,0,0,0,2.06,7.65q2.06,2.79,6.62,2.79A12.86,12.86,0,0,0,266.89,115.42Z" style="fill:#007d99"/><path d="M356.27,104a40.58,40.58,0,0,1-8.46,12.65,39.48,39.48,0,0,1-56.06,0A40.58,40.58,0,0,1,283.29,104a40.17,40.17,0,0,1,0-30.9,40.69,40.69,0,0,1,8.46-12.65,39.48,39.48,0,0,1,56.06,0,40.69,40.69,0,0,1,8.46,12.65,40.17,40.17,0,0,1,0,30.9Zm-60.76-5.37a25.69,25.69,0,0,0,5.66,8.31,27.26,27.26,0,0,0,8.39,5.59,26.41,26.41,0,0,0,20.45,0,27.33,27.33,0,0,0,8.38-5.59,26,26,0,0,0,0-37.08A27.51,27.51,0,0,0,330,64.29a26.41,26.41,0,0,0-20.45,0,27.44,27.44,0,0,0-8.39,5.59,25.85,25.85,0,0,0-5.66,8.32,26.41,26.41,0,0,0,0,20.45Z" style="fill:#007d99"/><path d="M401.58,126.09H369.36v-9h9V59.29h-9v-9h23.25v9.56a34.29,34.29,0,0,1,3.9-4.41,21,21,0,0,1,5.73-3.83A38.82,38.82,0,0,1,410.56,49,56.32,56.32,0,0,1,422,48V61.65A57.83,57.83,0,0,0,410.19,63a35.06,35.06,0,0,0-9.27,3.46,18.68,18.68,0,0,0-6.11,5.3,11.84,11.84,0,0,0-2.2,7.06v38.25h9Z" style="fill:#007d99"/></g></g></svg>